<?xml version="1.0" encoding="UTF-8" standalone="no"?>
<!-- Created with Inkscape (http://www.inkscape.org/) -->

<svg
   width="196.13425mm"
   height="196.13425mm"
   viewBox="0 0 196.13425 196.13425"
   version="1.1"
   id="svg1"
   xml:space="preserve"
   inkscape:version="1.3 (0e150ed6c4, 2023-07-21)"
   sodipodi:docname="dibujo.svg"
   xmlns:inkscape="http://www.inkscape.org/namespaces/inkscape"
   xmlns:sodipodi="http://sodipodi.sourceforge.net/DTD/sodipodi-0.dtd"
   xmlns="http://www.w3.org/2000/svg"
   xmlns:svg="http://www.w3.org/2000/svg"><sodipodi:namedview
     id="namedview1"
     pagecolor="#ffffff"
     bordercolor="#000000"
     borderopacity="0.25"
     inkscape:showpageshadow="2"
     inkscape:pageopacity="0.0"
     inkscape:pagecheckerboard="0"
     inkscape:deskcolor="#d1d1d1"
     inkscape:document-units="mm"
     inkscape:zoom="0.23742241"
     inkscape:cx="229.54867"
     inkscape:cy="360.11764"
     inkscape:window-width="1366"
     inkscape:window-height="697"
     inkscape:window-x="-8"
     inkscape:window-y="-8"
     inkscape:window-maximized="1"
     inkscape:current-layer="layer1" /><defs
     id="defs1" /><g
     inkscape:label="Capa 1"
     inkscape:groupmode="layer"
     id="layer1"
     transform="translate(1.1143991,-4.4575963)"><g
       id="g9"><rect
         style="fill:none;fill-opacity:1;stroke-width:0.264583"
         id="rect8"
         width="196.13425"
         height="196.13425"
         x="-1.1143991"
         y="4.4575963" /><g
         id="g8"
         transform="translate(-12.711618,-25.529584)"><path
           style="fill:#1dd1a1;fill-opacity:1"
           d="m 107.28942,179.01259 c 0,-0.0549 0.20835,-0.2633 0.46302,-0.46302 0.41964,-0.32911 0.429,-0.31975 0.0999,0.0999 -0.34564,0.44073 -0.56291,0.58089 -0.56291,0.36313 z m -24.126704,-0.61001 c 0.191,-0.0764 0.4192,-0.067 0.50712,0.0209 0.0879,0.0879 -0.0683,0.15046 -0.34726,0.13897 -0.30823,-0.0127 -0.37092,-0.0754 -0.15986,-0.15985 z m -13.213301,-3.98645 c -0.329108,-0.41964 -0.319749,-0.429 0.0999,-0.0999 0.254661,0.19972 0.46302,0.40808 0.46302,0.46303 0,0.21776 -0.217272,0.0776 -0.562915,-0.36313 z m -6.824529,-11.33299 c 0.0127,-0.30822 0.07539,-0.37092 0.159852,-0.15985 0.07643,0.191 0.06703,0.4192 -0.02089,0.50712 -0.08792,0.0879 -0.150453,-0.0684 -0.138964,-0.34727 z M 52.137231,131.50879 c 1.932235,-10.14076 7.171977,-22.17915 13.425478,-30.84526 7.478223,-10.363328 13.0633,-15.520828 20.591742,-19.015298 5.53201,-2.56779 9.81435,-3.58346 15.975579,-3.78903 7.7694,-0.25922 13.60986,0.95929 20.04756,4.1826 3.63681,1.82092 9.36811,5.81234 10.76801,7.49912 0.60574,0.72987 2.29834,1.46535 3.37128,1.46491 1.56253,-6.4e-4 2.70962,-0.75077 4.04545,-2.64543 0.70658,-1.00217 1.59437,-1.91282 2.12762,-2.1824 1.16039,-0.58661 3.30292,-0.5814 4.39284,0.0107 0.97689,0.53068 15.17537,12.77545 15.17537,13.08723 0,0.46906 -1.64203,3.419118 -3.21271,5.771918 -3.14435,4.71009 -6.94566,7.75699 -10.12464,8.11531 -0.65266,0.0736 -3.99094,0.0461 -7.4184,-0.061 l -6.23175,-0.19473 v -1.31947 c 0,-2.65952 -1.40746,-4.21735 -3.95144,-4.3736 -2.18704,-0.13432 -3.26808,0.58791 -4.60638,3.07745 l -1.05114,1.95538 -2.53771,-0.16964 c -1.39573,-0.0933 -5.3952,-0.35054 -8.8877,-0.57164 -3.4925,-0.22111 -6.61545,-0.4608 -6.93988,-0.53265 -0.32444,-0.0718 -2.09083,-1.38164 -3.92531,-2.91065 -3.766369,-3.13918 -5.673959,-4.4916 -8.009299,-5.67834 -0.88693,-0.4507 -1.95833,-1.2389 -2.3809,-1.75155 -3.70407,-4.493678 -10.829705,-5.404058 -15.402821,-1.967878 -1.839934,1.382498 -2.378972,2.087558 -5.270225,6.893468 -2.600596,4.32277 -3.042875,5.64714 -2.451966,7.34223 0.250594,0.71885 0.112161,0.951 -2.411711,4.04434 -2.288101,2.80437 -6.883171,7.72319 -13.808842,14.78175 l -1.662461,1.69436 z M 67.866497,84.027182 c 0,-0.0549 0.20836,-0.26331 0.463021,-0.46302 0.419644,-0.32911 0.429002,-0.31975 0.0999,0.0999 -0.345644,0.44073 -0.562916,0.58088 -0.562916,0.36312 z"
           id="path7" /><path
           style="fill:#10ac84;fill-opacity:1"
           d="m 74.348789,177.66153 c -0.145521,-0.0474 -1.276615,-0.40801 -2.513542,-0.80125 -11.535559,-3.66739 -19.875924,-14.12463 -21.14615,-26.51328 -0.312944,-3.05218 0.02098,-10.23425 0.661575,-14.22931 0.23334,-1.4552 0.433295,-2.78942 0.444345,-2.96492 0.01105,-0.1755 0.09997,-0.26972 0.1976,-0.20938 0.295116,0.18239 12.566745,-12.69953 15.293414,-16.05398 2.391216,-2.94177 2.961716,-3.49425 2.961716,-2.86818 0,0.14346 0.474191,0.57464 1.053758,0.95818 0.907522,0.60057 1.265519,0.68176 2.579687,0.58506 0.859916,-0.0633 1.845256,-0.32269 2.257551,-0.59436 0.423196,-0.27885 1.794525,-2.24992 3.252963,-4.67563 1.38674,-2.30645 2.78064,-4.37516 3.09756,-4.59714 0.95577,-0.66945 2.50164,-0.51781 3.347845,0.3284 0.79898,0.79897 0.84579,1.11756 1.24345,8.46227 l 0.17548,3.24114 h -0.79658 c -0.43811,0 -1.853955,0.18022 -3.146325,0.40049 -11.000918,1.87497 -20.175306,9.36987 -24.178252,19.75212 -0.790155,2.04938 -4.497553,16.96887 -4.497553,18.09926 0,0.52733 0.19561,1.371 0.434689,1.87482 1.400328,2.95097 6.140508,2.97789 7.586706,0.0431 0.427024,-0.86657 0.433309,-0.83507 0.439247,2.20183 0.0046,2.37568 0.134116,3.49621 0.565563,4.89479 1.572778,5.09834 5.157273,9.36899 9.855994,11.74267 1.68721,0.85233 2.132593,1.34823 0.829259,0.92331 z m 53.048951,-49.47462 c 0,-0.0691 1.70771,-3.55164 3.79491,-7.73906 l 3.79491,-7.61349 4.34103,0.20453 c 2.38756,0.11249 5.71365,0.17202 7.3913,0.13229 2.86643,-0.0679 3.16095,-0.12678 4.88652,-0.9772 3.14826,-1.55157 6.66983,-5.58248 9.49267,-10.86561 l 1.14014,-2.133858 3.21676,2.798628 c 1.76922,1.53925 3.21676,2.98369 3.21676,3.20986 0,0.96687 -0.90038,3.75551 -1.77314,5.49179 -1.28643,2.55921 -4.54381,5.82172 -7.09085,7.10199 -3.68861,1.8541 -3.75758,1.86368 -14.28705,1.98415 -8.97587,0.1027 -9.58041,0.14002 -10.486,0.64729 -2.63449,1.47573 -2.78151,5.52738 -0.26269,7.23896 l 0.94965,0.64531 h -4.16246 c -2.28935,0 -4.16246,-0.0565 -4.16246,-0.12558 z M 96.347751,124.1453 c -0.0891,-1.12779 -0.34959,-5.4438 -0.57877,-9.59115 -0.4664,-8.44012 -0.64719,-9.71541 -1.66131,-11.71882 l -0.70888,-1.4004 1.71979,0.91029 c 2.53865,1.34371 4.33677,2.62041 8.052519,5.7174 1.83448,1.52901 3.60087,2.83924 3.92531,2.91163 0.86734,0.19354 13.99124,1.0275 16.49865,1.04842 l 2.15045,0.0179 -1.42506,2.84427 -1.42505,2.84427 h -10.34665 c -10.0484,0 -10.3754,0.0162 -11.34368,0.56036 -2.669349,1.50026 -2.835429,5.53727 -0.29871,7.26101 l 0.94964,0.6453 h -2.673079 -2.67309 z m 31.049989,-15.51187 c 0,-0.0549 0.20836,-0.26331 0.46302,-0.46303 0.41964,-0.3291 0.429,-0.31974 0.0999,0.0999 -0.34564,0.44073 -0.56291,0.58089 -0.56291,0.36313 z m 6.31625,-0.36313 c -0.3291,-0.41964 -0.31975,-0.429 0.0999,-0.0999 0.44073,0.34565 0.58089,0.56292 0.36313,0.56292 -0.0549,0 -0.26329,-0.20836 -0.46302,-0.46302 z m -58.174576,-8.10354 c 0,-0.0549 0.208359,-0.263298 0.46302,-0.463018 0.419644,-0.32911 0.429003,-0.31975 0.0999,0.0999 -0.345643,0.440728 -0.562915,0.580888 -0.562915,0.363128 z m 16.370417,-0.363128 c -0.3291,-0.41964 -0.31974,-0.429 0.0999,-0.0999 0.25466,0.19972 0.46302,0.408078 0.46302,0.463018 0,0.21776 -0.21727,0.0776 -0.56292,-0.363128 z m 11.083189,-22.21369 c 0.32912,-0.0633 0.80537,-0.0609 1.05834,0.005 0.25296,0.0662 -0.0163,0.11801 -0.5984,0.11507 -0.58209,-0.003 -0.78906,-0.0571 -0.45994,-0.12041 z"
           id="path6" /><path
           style="fill:#86a862"
           d="m 86.987681,186.86663 c 0.25743,-0.0671 0.61462,-0.0627 0.79375,0.01 0.17913,0.0725 -0.0315,0.12736 -0.46805,0.12197 -0.43658,-0.005 -0.58313,-0.0647 -0.3257,-0.13177 z m -7.529127,-8.46405 c 0.190996,-0.0764 0.419199,-0.067 0.507118,0.0209 0.08792,0.0879 -0.06835,0.15046 -0.347266,0.13897 -0.308224,-0.0127 -0.370919,-0.0754 -0.159852,-0.15985 z m 4.749052,-0.006 c 0.32911,-0.0633 0.80536,-0.0609 1.058335,0.005 0.25296,0.0662 -0.0163,0.118 -0.598405,0.11506 -0.58208,-0.003 -0.78905,-0.0571 -0.45993,-0.1204 z M 105.7228,164.40645 c 0.0127,-0.30822 0.0754,-0.37092 0.15986,-0.15985 0.0764,0.19099 0.067,0.4192 -0.0209,0.50712 -0.0879,0.0879 -0.15045,-0.0684 -0.13897,-0.34727 z M 95.383171,154.9359 c 0,-0.055 0.20836,-0.26331 0.46302,-0.46302 0.41964,-0.32911 0.429,-0.31975 0.0999,0.0999 -0.34564,0.44073 -0.56291,0.58089 -0.56291,0.36313 z m 3.37343,-1.66284 c 0.1819,-0.0734 0.47956,-0.0734 0.66146,0 0.1819,0.0734 0.0331,0.13345 -0.33073,0.13345 -0.3638,0 -0.51263,-0.0601 -0.33073,-0.13345 z m -48.331715,-7.65203 c 0.0127,-0.30822 0.07539,-0.37091 0.159853,-0.15985 0.07643,0.191 0.06703,0.4192 -0.02089,0.50712 -0.08792,0.0879 -0.150453,-0.0684 -0.138965,-0.34727 z m 37.856305,-10.1644 c 0,-0.36381 0.0601,-0.51263 0.13346,-0.33073 0.0734,0.1819 0.0734,0.47955 0,0.66145 -0.0734,0.18191 -0.13346,0.0331 -0.13346,-0.33072 z m -0.26458,-4.49792 c 0,-0.3638 0.06,-0.51263 0.13345,-0.33073 0.0734,0.1819 0.0734,0.47956 0,0.66146 -0.0734,0.1819 -0.13345,0.0331 -0.13345,-0.33073 z m 8.44578,-1.74184 c 0.0127,-0.30823 0.0754,-0.37092 0.15985,-0.15985 0.0764,0.19099 0.067,0.4192 -0.0209,0.50711 -0.0879,0.0879 -0.15045,-0.0683 -0.13896,-0.34726 z m -9.5955,-2.93682 c 0.191,-0.0764 0.4192,-0.067 0.50712,0.0209 0.0879,0.0879 -0.0683,0.15045 -0.34727,0.13896 -0.30822,-0.0127 -0.37092,-0.0754 -0.15985,-0.15985 z m 82.864179,-5.24322 c 0.34177,-0.3638 0.68094,-0.66145 0.7537,-0.66145 0.0728,0 -0.14734,0.29765 -0.48912,0.66145 -0.34177,0.36381 -0.68094,0.66146 -0.7537,0.66146 -0.0728,0 0.14734,-0.29765 0.48912,-0.66146 z m -6.08542,-6.08541 c 0.34178,-0.3638 0.68094,-0.66146 0.7537,-0.66146 0.0728,0 -0.14734,0.29766 -0.48911,0.66146 -0.34178,0.3638 -0.68094,0.66146 -0.7537,0.66146 -0.0728,0 0.14734,-0.29766 0.48911,-0.66146 z M 73.555039,90.477072 c 0.263389,-0.29104 0.53842,-0.52917 0.611181,-0.52917 0.07276,0 -0.08321,0.23813 -0.346598,0.52917 -0.263389,0.29104 -0.53842,0.52917 -0.611181,0.52917 -0.07276,0 0.08321,-0.23813 0.346598,-0.52917 z m 70.991011,-4.94324 c 0.191,-0.0764 0.41919,-0.067 0.50711,0.0209 0.0879,0.0879 -0.0684,0.15045 -0.34726,0.13897 -0.30823,-0.0127 -0.37092,-0.0754 -0.15986,-0.15986 z m -39.96861,-7.93199 c 0.1819,-0.0734 0.47955,-0.0734 0.66146,0 0.1819,0.0734 0.0331,0.13345 -0.33073,0.13345 -0.36381,0 -0.51263,-0.06 -0.33073,-0.13345 z"
           id="path5" /><path
           style="fill:#709747"
           d="m 86.073141,186.86924 c 0.191,-0.0764 0.4192,-0.067 0.50712,0.0209 0.0879,0.0879 -0.0683,0.15045 -0.34727,0.13896 -0.30822,-0.0127 -0.37092,-0.0754 -0.15985,-0.15985 z m -24.556643,-27.7004 c 0,-0.0549 0.208359,-0.2633 0.46302,-0.46302 0.419644,-0.32911 0.429003,-0.31975 0.09989,0.0999 -0.345643,0.44073 -0.562915,0.58089 -0.562915,0.36313 z M 50.465382,144.45207 c 0,-0.50932 0.05445,-0.71768 0.121,-0.46302 0.06655,0.25466 0.06655,0.67138 0,0.92604 -0.06655,0.25466 -0.121,0.0463 -0.121,-0.46302 z m -8.507162,-2.00643 c 0.0127,-0.30822 0.07539,-0.37091 0.159853,-0.15985 0.07643,0.191 0.06703,0.4192 -0.02089,0.50712 -0.08792,0.0879 -0.150452,-0.0684 -0.138964,-0.34727 z m 22.733277,-13.96847 c 0,-0.0549 0.20836,-0.2633 0.463021,-0.46302 0.419644,-0.3291 0.429003,-0.31975 0.09989,0.0999 -0.345644,0.44073 -0.562916,0.58089 -0.562916,0.36312 z m 2.38125,-2.38125 c 0,-0.0549 0.20836,-0.2633 0.463021,-0.46302 0.419644,-0.3291 0.429002,-0.31975 0.0999,0.0999 -0.345644,0.44073 -0.562916,0.58089 -0.562916,0.36312 z m 29.125054,-1.64194 c 0.0127,-0.30823 0.0754,-0.37092 0.15986,-0.15985 0.0764,0.19099 0.067,0.4192 -0.0209,0.50711 -0.0879,0.0879 -0.15046,-0.0684 -0.13897,-0.34726 z m -0.26458,-4.49792 c 0.0127,-0.30822 0.0754,-0.37092 0.15985,-0.15985 0.0764,0.191 0.067,0.4192 -0.0209,0.50712 -0.0879,0.0879 -0.15046,-0.0684 -0.13897,-0.34727 z m -0.26458,-4.49791 c 0.0127,-0.30823 0.0754,-0.37092 0.15985,-0.15986 0.0764,0.191 0.067,0.4192 -0.0209,0.50712 -0.0879,0.0879 -0.15045,-0.0684 -0.13896,-0.34726 z m -25.19006,-1.10243 c -0.329107,-0.41965 -0.319749,-0.42901 0.0999,-0.0999 0.254662,0.19972 0.463021,0.40808 0.463021,0.46302 0,0.21776 -0.217272,0.0776 -0.562916,-0.36312 z m 5.854583,0.36312 c 0,-0.0549 0.208359,-0.2633 0.46302,-0.46302 0.419644,-0.32911 0.429003,-0.31975 0.09989,0.0999 -0.345643,0.44072 -0.562915,0.58088 -0.562915,0.36312 z m 10.625117,-1.4876 c 0,-0.36381 0.06,-0.51263 0.13345,-0.33073 0.0734,0.1819 0.0734,0.47955 0,0.66146 -0.0734,0.1819 -0.13345,0.0331 -0.13345,-0.33073 z m 8.44577,-2.27101 c 0.0127,-0.30822 0.0754,-0.37092 0.15986,-0.15985 0.0764,0.19099 0.067,0.4192 -0.0209,0.50712 -0.0879,0.0879 -0.15045,-0.0684 -0.13897,-0.34727 z m -8.71036,-2.22691 c 0,-0.3638 0.0601,-0.51263 0.13346,-0.33073 0.0734,0.1819 0.0734,0.47956 0,0.66146 -0.0734,0.1819 -0.13346,0.0331 -0.13346,-0.33073 z m 81.416139,-4.43177 c -0.32912,-0.41964 -0.31975,-0.429 0.0999,-0.0999 0.44072,0.34565 0.58088,0.56292 0.36312,0.56292 -0.0549,0 -0.2633,-0.20836 -0.46302,-0.46302 z m -6.08542,-5.291668 c -0.3291,-0.41964 -0.31975,-0.429 0.0999,-0.0999 0.25466,0.19972 0.46302,0.40808 0.46302,0.46302 0,0.21776 -0.21728,0.0776 -0.56292,-0.36313 z m -29.36874,-9.78958 c -0.32912,-0.41964 -0.31975,-0.429 0.0999,-0.0999 0.25467,0.19971 0.46302,0.40807 0.46302,0.46302 0,0.21776 -0.21727,0.0776 -0.5629,-0.36313 z m -57.38084,-0.43062 c 0,-0.0549 0.20836,-0.26331 0.463021,-0.46302 0.419644,-0.32911 0.429002,-0.31975 0.0999,0.0999 -0.345644,0.44073 -0.562916,0.58089 -0.562916,0.36313 z m 65.61667,-1.5875 c 0,-0.055 0.20836,-0.26331 0.46302,-0.46302 0.41963,-0.32911 0.429,-0.31975 0.0999,0.0999 -0.34564,0.44073 -0.5629,0.58089 -0.5629,0.36313 z m -39.48906,-9.60034 c 0.1819,-0.0734 0.47955,-0.0734 0.66146,0 0.1819,0.0734 0.0331,0.13345 -0.33073,0.13345 -0.36381,0 -0.51263,-0.06 -0.33073,-0.13345 z m 4.24987,-0.006 c 0.19099,-0.0764 0.4192,-0.067 0.50711,0.0209 0.0879,0.0879 -0.0683,0.15046 -0.34726,0.13897 -0.30823,-0.0127 -0.37092,-0.0754 -0.15985,-0.15986 z"
           id="path4" /><path
           style="fill:#4b6531"
           d="m 78.664804,186.86924 c 0.190996,-0.0764 0.419199,-0.067 0.507118,0.0209 0.08792,0.0879 -0.06835,0.15045 -0.347266,0.13896 -0.308224,-0.0127 -0.370919,-0.0754 -0.159852,-0.15985 z m 6.333462,0.006 c 0.181895,-0.0734 0.479565,-0.0734 0.661465,0 0.1819,0.0734 0.0331,0.13346 -0.33073,0.13346 -0.363805,0 -0.512635,-0.0601 -0.330735,-0.13346 z m 1.322915,-8.46666 c 0.1819,-0.0734 0.47957,-0.0734 0.66147,0 0.18189,0.0734 0.0331,0.13345 -0.33074,0.13345 -0.36381,0 -0.51263,-0.06 -0.33073,-0.13345 z M 54.338999,176.2687 c -0.329107,-0.41964 -0.319749,-0.429 0.0999,-0.0999 0.254661,0.19972 0.463021,0.40808 0.463021,0.46302 0,0.21776 -0.217272,0.0776 -0.562916,-0.36313 z m -1.852083,-1.85208 c -0.329108,-0.41964 -0.319749,-0.429 0.0999,-0.0999 0.254661,0.19972 0.46302,0.40808 0.46302,0.46303 0,0.21776 -0.217272,0.0776 -0.562915,-0.36313 z m 6.879166,-5.02708 c -0.329107,-0.41965 -0.319749,-0.42901 0.0999,-0.0999 0.254661,0.19972 0.463021,0.40808 0.463021,0.46302 0,0.21776 -0.217272,0.0776 -0.562916,-0.36312 z m -8.941196,-19.27098 c 0.0127,-0.30822 0.07539,-0.37092 0.159853,-0.15985 0.07643,0.19099 0.06703,0.4192 -0.02089,0.50712 -0.08792,0.0879 -0.150453,-0.0684 -0.138965,-0.34727 z m 57.902834,-1.36701 -0.64143,-0.72761 0.7276,0.64144 c 0.68006,0.59951 0.84894,0.81377 0.64144,0.81377 -0.0474,0 -0.37482,-0.32742 -0.72761,-0.7276 z m -10.348329,-3.95106 c 0.191,-0.0764 0.4192,-0.067 0.50712,0.0209 0.0879,0.0879 -0.0683,0.15046 -0.34727,0.13897 -0.30822,-0.0127 -0.37092,-0.0754 -0.15985,-0.15986 z m -47.554505,-1.5611 c 0.0127,-0.30822 0.07539,-0.37091 0.159853,-0.15985 0.07643,0.191 0.06703,0.4192 -0.02089,0.50712 -0.08792,0.0879 -0.150453,-0.0684 -0.138965,-0.34727 z m 15.060361,-15.53886 c 0,-0.0455 0.386954,-0.43249 0.859896,-0.8599 l 0.859896,-0.7771 -0.777105,0.85989 c -0.724371,0.80155 -0.942687,0.98152 -0.942687,0.77711 z m 30.712554,-2.4528 c 0.0127,-0.30823 0.0754,-0.37092 0.15986,-0.15985 0.0764,0.19099 0.067,0.4192 -0.0209,0.50711 -0.0879,0.0879 -0.15046,-0.0683 -0.13897,-0.34726 z m -0.26458,-4.49792 c 0.0127,-0.30822 0.0754,-0.37092 0.15985,-0.15985 0.0764,0.191 0.067,0.4192 -0.0209,0.50712 -0.0879,0.0879 -0.15046,-0.0684 -0.13897,-0.34727 z M 85.808561,117.813 c 0.19099,-0.0764 0.4192,-0.067 0.50712,0.0209 0.0879,0.0879 -0.0684,0.15046 -0.34727,0.13897 -0.30822,-0.0127 -0.37092,-0.0754 -0.15985,-0.15985 z m 1.39341,-1.03194 c 0.0127,-0.30822 0.0754,-0.37092 0.15985,-0.15985 0.0764,0.191 0.067,0.4192 -0.0209,0.50712 -0.0879,0.0879 -0.15046,-0.0684 -0.13897,-0.34727 z m 8.46667,-0.52916 c 0.0127,-0.30823 0.0754,-0.37092 0.15985,-0.15986 0.0764,0.191 0.067,0.4192 -0.0209,0.50712 -0.0879,0.0879 -0.15045,-0.0684 -0.13896,-0.34726 z m -8.73125,-3.96875 c 0.0127,-0.30823 0.0754,-0.37092 0.15985,-0.15986 0.0764,0.191 0.067,0.4192 -0.0209,0.50712 -0.0879,0.0879 -0.15045,-0.0684 -0.13896,-0.34726 z m 8.46666,-0.52917 c 0.0127,-0.30822 0.0754,-0.37092 0.15986,-0.15985 0.0764,0.19099 0.067,0.4192 -0.0209,0.50712 -0.0879,0.0879 -0.15045,-0.0684 -0.13897,-0.34727 z M 135.9356,90.822882 c 0.25743,-0.0671 0.61461,-0.0627 0.79375,0.01 0.17912,0.0725 -0.0315,0.12736 -0.46807,0.12197 -0.43655,-0.005 -0.58313,-0.0647 -0.32569,-0.13178 z m -35.31038,-13.22655 c 0.191,-0.0764 0.4192,-0.067 0.50712,0.0209 0.0879,0.0879 -0.0684,0.15045 -0.34726,0.13897 -0.30823,-0.0127 -0.37092,-0.0754 -0.15986,-0.15986 z m 5.82084,0 c 0.19099,-0.0764 0.4192,-0.067 0.50711,0.0209 0.0879,0.0879 -0.0684,0.15045 -0.34726,0.13897 -0.30823,-0.0127 -0.37092,-0.0754 -0.15986,-0.15986 z"
           id="path3" /><path
           style="fill:#364a22"
           d="m 79.442018,186.87475 c 0.181901,-0.0734 0.479557,-0.0734 0.661458,0 0.181901,0.0734 0.03307,0.13346 -0.330729,0.13346 -0.363802,0 -0.512631,-0.0601 -0.330729,-0.13346 z m 4.101038,-0.007 c 0.25466,-0.0666 0.67138,-0.0666 0.92604,0 0.25467,0.0666 0.0463,0.121 -0.46302,0.121 -0.50932,0 -0.71768,-0.0545 -0.46302,-0.121 z m 3.852995,-8.46502 c 0.19099,-0.0764 0.41921,-0.067 0.50712,0.0209 0.0879,0.0879 -0.0684,0.15046 -0.34726,0.13897 -0.30823,-0.0127 -0.37092,-0.0754 -0.15986,-0.15985 z m -33.974483,-3.06041 -0.504028,-0.59531 0.595312,0.50403 c 0.559447,0.47366 0.715762,0.68659 0.504028,0.68659 -0.05021,0 -0.318097,-0.26789 -0.595312,-0.59531 z m 6.879166,-5.02708 -0.504028,-0.59531 0.595313,0.50402 c 0.559446,0.47367 0.715761,0.6866 0.504027,0.6866 -0.05021,0 -0.318097,-0.26789 -0.595312,-0.59531 z m -1.852083,-1.85209 -0.504028,-0.59531 0.595312,0.50403 c 0.559447,0.47366 0.715762,0.6866 0.504028,0.6866 -0.05021,0 -0.318097,-0.26789 -0.595312,-0.59532 z m 55.761709,-3.9026 c 0,-0.3638 0.06,-0.51263 0.13345,-0.33073 0.0734,0.1819 0.0734,0.47956 0,0.66146 -0.0734,0.1819 -0.13345,0.0331 -0.13345,-0.33073 z m -0.0209,-2.53559 c 0.0127,-0.30822 0.0754,-0.37092 0.15985,-0.15985 0.0764,0.19099 0.067,0.4192 -0.0209,0.50712 -0.0879,0.0879 -0.15045,-0.0684 -0.13896,-0.34727 z m -28.310399,-5.29167 c 0.0127,-0.30822 0.0754,-0.37092 0.15985,-0.15985 0.0764,0.191 0.067,0.4192 -0.0209,0.50712 -0.0879,0.0879 -0.15045,-0.0683 -0.13896,-0.34727 z m 16.878679,-1.63159 c -0.32911,-0.41965 -0.31975,-0.42901 0.0999,-0.0999 0.44072,0.34565 0.58088,0.56292 0.36312,0.56292 -0.0549,0 -0.2633,-0.20836 -0.46302,-0.46302 z m -60.79952,-5.51216 c 0.0127,-0.30822 0.07539,-0.37091 0.159853,-0.15985 0.07643,0.191 0.06703,0.4192 -0.02089,0.50712 -0.08792,0.0879 -0.150452,-0.0684 -0.138964,-0.34727 z m 46.810351,0.0545 c 0,-0.0549 0.20836,-0.2633 0.46302,-0.46302 0.41965,-0.32911 0.42901,-0.31975 0.0999,0.0999 -0.34564,0.44073 -0.56292,0.58089 -0.56292,0.36313 z m 9.98802,-4.83783 c 0.1819,-0.0734 0.47957,-0.0734 0.66147,0 0.1819,0.0734 0.0331,0.13345 -0.33074,0.13345 -0.36379,0 -0.51263,-0.06 -0.33073,-0.13345 z m -56.767679,-0.75082 c 0.0054,-0.43656 0.06469,-0.58312 0.131774,-0.32569 0.06708,0.25743 0.06267,0.61462 -0.0098,0.79375 -0.07248,0.17913 -0.127362,-0.0315 -0.12197,-0.46806 z m 8.456863,-1.71979 c 0,-0.3638 0.06005,-0.51263 0.133452,-0.33073 0.0734,0.1819 0.0734,0.47956 0,0.66146 -0.0734,0.1819 -0.133452,0.0331 -0.133452,-0.33073 z m 104.311195,-8.53281 -0.50402,-0.59531 0.59532,0.50403 c 0.55943,0.47366 0.71575,0.68659 0.50403,0.68659 -0.0502,0 -0.3181,-0.26789 -0.59533,-0.59531 z m -66.475789,-0.19844 c 0,-0.3638 0.0601,-0.51263 0.13346,-0.33073 0.0734,0.1819 0.0734,0.47956 0,0.66146 -0.0734,0.1819 -0.13346,0.0331 -0.13346,-0.33073 z M 72.09983,132.94289 c 0.341775,-0.3638 0.680939,-0.66145 0.7537,-0.66145 0.07276,0 -0.147342,0.29765 -0.489116,0.66145 -0.341775,0.36381 -0.680939,0.66146 -0.7537,0.66146 -0.07276,0 0.147342,-0.29765 0.489116,-0.66146 z m 24.362551,-1.87413 c 0.0127,-0.30822 0.0754,-0.37092 0.15985,-0.15985 0.0764,0.191 0.067,0.4192 -0.0209,0.50712 -0.0879,0.0879 -0.15045,-0.0683 -0.13895,-0.34727 z m -8.44578,-1.96232 c 0,-0.36381 0.06,-0.51263 0.13345,-0.33073 0.0734,0.1819 0.0734,0.47955 0,0.66145 -0.0734,0.18191 -0.13345,0.0331 -0.13345,-0.33072 z m 8.21189,-2.77813 c 0.005,-0.43656 0.0647,-0.58312 0.13177,-0.32569 0.0671,0.25743 0.0627,0.61462 -0.01,0.79375 -0.0725,0.17913 -0.12737,-0.0315 -0.12197,-0.46806 z m -0.26459,-4.49792 c 0.005,-0.43656 0.0647,-0.58312 0.13178,-0.32569 0.0671,0.25743 0.0627,0.61462 -0.01,0.79375 -0.0725,0.17913 -0.12736,-0.0315 -0.12197,-0.46806 z m -9.3616,-4.01719 c 0.19099,-0.0764 0.4192,-0.067 0.50712,0.0209 0.0879,0.0879 -0.0684,0.15046 -0.34727,0.13897 -0.30822,-0.0127 -0.37091,-0.0754 -0.15985,-0.15985 z m 9.09702,-0.48072 c 0.005,-0.43656 0.0647,-0.58313 0.13177,-0.3257 0.0671,0.25744 0.0627,0.61462 -0.01,0.79375 -0.0725,0.17914 -0.12736,-0.0315 -0.12197,-0.46805 z m -8.47647,-1.45521 c 0,-0.3638 0.0601,-0.51263 0.13345,-0.33073 0.0734,0.1819 0.0734,0.47956 0,0.66146 -0.0734,0.1819 -0.13345,0.0331 -0.13345,-0.33073 z m 8.21189,-3.04271 c 0.005,-0.43656 0.0647,-0.58312 0.13177,-0.32569 0.0671,0.25743 0.0627,0.61462 -0.01,0.79375 -0.0725,0.17913 -0.12737,-0.0315 -0.12197,-0.46806 z m -8.47647,-1.45521 c 0,-0.3638 0.06,-0.51263 0.13345,-0.33073 0.0734,0.18191 0.0734,0.47956 0,0.66146 -0.0734,0.1819 -0.13345,0.0331 -0.13345,-0.33073 z m 8.21188,-3.0427 c 0.005,-0.43657 0.0647,-0.58313 0.13178,-0.3257 0.0671,0.25743 0.0627,0.61462 -0.01,0.79375 -0.0725,0.17913 -0.12736,-0.0315 -0.12197,-0.46805 z m 81.990139,-3.72622 c 0.0127,-0.30822 0.0754,-0.37092 0.15985,-0.15985 0.0764,0.19099 0.067,0.4192 -0.0209,0.50712 -0.0879,0.0879 -0.15045,-0.0684 -0.13896,-0.34727 z m -11.96089,-2.95451 c -0.3291,-0.41965 -0.31975,-0.42901 0.0999,-0.0999 0.44073,0.34565 0.58089,0.56292 0.36312,0.56292 -0.0549,0 -0.2633,-0.20836 -0.46302,-0.46302 z m -89.92457,-0.95979 c 0,-0.0549 0.20836,-0.26331 0.463021,-0.46303 0.419644,-0.329098 0.429002,-0.319738 0.0999,0.0999 -0.345644,0.44073 -0.562916,0.58089 -0.562916,0.36313 z m 16.519811,-0.760008 -0.77711,-0.85989 0.8599,0.7771 c 0.80154,0.724378 0.98151,0.942688 0.7771,0.942688 -0.0455,0 -0.43248,-0.38695 -0.85989,-0.859898 z m -8.896505,-3.28959 c 0.191,-0.0764 0.4192,-0.067 0.50712,0.0209 0.0879,0.0879 -0.0683,0.15045 -0.34727,0.13896 -0.30822,-0.0127 -0.37092,-0.0754 -0.15985,-0.15985 z m 1.57096,0.006 c 0.18191,-0.0734 0.47956,-0.0734 0.66146,0 0.181895,0.0734 0.0331,0.13345 -0.33073,0.13345 -0.3638,0 -0.51263,-0.06 -0.33073,-0.13345 z m 47.128224,-8.48987 c -0.32911,-0.41965 -0.31975,-0.42901 0.0999,-0.0999 0.25466,0.19972 0.46302,0.40808 0.46302,0.46302 0,0.21776 -0.21727,0.0776 -0.56292,-0.36312 z m -64.656854,-2.97726 c 0.263389,-0.29104 0.53842,-0.52916 0.611181,-0.52916 0.07276,0 -0.08321,0.23812 -0.346598,0.52916 -0.263389,0.29105 -0.53842,0.52917 -0.611181,0.52917 -0.07276,0 0.08321,-0.23812 0.346598,-0.52917 z m 2.778125,-2.74572 c 0,-0.0549 0.208359,-0.26331 0.46302,-0.46302 0.419644,-0.32911 0.429003,-0.31975 0.0999,0.0999 -0.345643,0.44072 -0.562915,0.58088 -0.562915,0.36312 z m 74.546339,-5.3785 c 0.32743,-0.0631 0.86321,-0.0631 1.19063,0 0.32742,0.0631 0.0595,0.11466 -0.59531,0.11466 -0.65485,0 -0.92274,-0.0516 -0.59532,-0.11466 z m -42.73019,-7.93316 c 0.25466,-0.0665 0.67138,-0.0665 0.92604,0 0.25466,0.0666 0.0463,0.121 -0.46302,0.121 -0.50932,0 -0.71768,-0.0545 -0.46302,-0.121 z m 3.70417,0 c 0.25466,-0.0665 0.67138,-0.0665 0.92604,0 0.25466,0.0666 0.0463,0.121 -0.46302,0.121 -0.50933,0 -0.71769,-0.0545 -0.46302,-0.121 z"
           id="path2" /><path
           style="fill:#000000"
           d="m 78.104177,186.77098 c -6.753024,-0.60366 -12.974073,-2.80719 -18.721292,-6.63119 -3.074971,-2.04597 -8.025072,-6.91008 -10.167271,-9.99063 -5.148295,-7.40342 -7.615837,-16.27314 -7.148893,-25.69709 0.461785,-9.31982 1.996366,-17.55162 4.795339,-25.72318 4.124537,-12.04151 9.878478,-21.667668 19.599038,-32.788568 14.409408,-16.48521 38.897652,-21.42589 58.952272,-11.89403 2.98921,1.42075 6.3016,3.41821 8.59539,5.18324 0.85298,0.65636 1.6274,1.19337 1.72092,1.19337 0.0935,0 0.5521,-0.2914 1.01906,-0.64757 0.46695,-0.35617 1.66255,-1.02828 2.65688,-1.49358 1.51076,-0.70697 2.21629,-0.86737 4.29309,-0.976 3.10843,-0.16259 5.06806,0.23586 7.34681,1.49382 1.98213,1.09421 24.8191,20.73237 25.69702,22.097578 0.43719,0.67986 0.51993,1.21395 0.47602,3.07276 -0.28552,12.08783 -9.87064,22.53647 -22.07812,24.06716 -1.20809,0.15148 -5.89512,0.27542 -10.41563,0.27542 -7.99913,0 -8.25054,-0.0159 -9.39359,-0.59532 -2.88073,-1.46015 -3.00078,-5.52985 -0.21268,-7.20989 0.8233,-0.49611 1.48977,-0.53816 10.66775,-0.67307 9.14059,-0.13437 9.90359,-0.18214 11.50937,-0.7206 2.5719,-0.86243 4.87664,-2.35523 6.8602,-4.44341 2.52647,-2.65971 4.03945,-5.56913 4.62719,-8.89794 l 0.17244,-0.97669 -10.60754,-9.209768 c -5.83414,-5.06537 -11.04721,-9.41501 -11.5846,-9.66585 -2.35246,-1.09811 -4.80561,-0.23645 -6.57142,2.30816 -1.33457,1.92319 -2.22367,2.51084 -3.79835,2.51052 -1.49066,-3e-4 -2.22699,-0.38339 -4.3015,-2.23797 -5.55617,-4.96712 -12.74766,-8.62003 -20.10091,-10.21025 -3.26066,-0.70515 -9.59011,-0.96006 -13.057999,-0.5259 -9.24952,1.15801 -17.553245,5.11202 -24.148193,11.49873 -3.870935,3.74871 -10.548009,12.513588 -13.723698,18.014868 -7.129323,12.3502 -11.032563,27.45463 -10.582476,40.95117 0.161205,4.83399 0.635197,7.20409 2.19704,10.98585 3.289452,7.9649 9.530613,14.12858 17.439612,17.22311 4.59505,1.79789 6.022474,2.01405 13.22917,2.00338 5.631415,-0.008 6.610765,-0.0748 8.654325,-0.58779 4.22837,-1.06132 7.68416,-3.0258 10.412869,-5.91927 2.47605,-2.62556 3.55468,-5.273 3.55468,-8.72479 0,-3.39474 -1.95951,-7.62707 -4.22552,-9.12664 -3.253589,-2.15313 -7.416149,0.0149 -7.416149,3.86269 0,1.31566 0.33252,2.16757 1.331,3.41005 2.12626,2.64584 1.24434,6.00982 -1.81594,6.92671 -2.39321,0.71702 -4.72951,-0.93831 -6.53086,-4.62728 -3.349515,-6.8594 -0.13785,-15.01438 7.05183,-17.90589 2.00749,-0.80736 5.933039,-0.99338 8.039619,-0.38098 2.5997,0.75575 4.12803,1.69653 6.26048,3.85371 1.68776,1.70734 2.25685,2.52157 3.35124,4.79482 1.73572,3.60542 2.22921,5.69381 2.21007,9.35282 -0.0401,7.65812 -3.55164,13.61435 -10.98804,18.63757 -3.21282,2.17023 -8.247929,3.97304 -12.481269,4.4689 -3.33053,0.39011 -9.875705,0.54262 -12.648784,0.29473 z M 57.090193,159.54289 c -1.20327,-0.54622 -2.041144,-1.65586 -2.302578,-3.04943 -0.215594,-1.14921 3.521916,-16.11399 4.790297,-19.18007 4.592775,-11.10222 14.904703,-18.55941 26.809409,-19.38753 l 0.92606,-0.0644 -0.0865,-2.91041 c -0.0476,-1.60073 -0.17929,-4.15187 -0.29269,-5.6692 -0.19804,-2.65013 -0.23909,-2.7882 -1.04215,-3.50573 -1.074595,-0.96015 -2.599915,-1.02458 -3.589945,-0.15163 -0.37133,0.32742 -1.77763,2.44078 -3.125109,4.69635 -2.201172,3.6846 -2.56968,4.16149 -3.628993,4.69635 -1.482942,0.74876 -2.239558,0.74876 -3.716777,0 -1.469875,-0.74503 -2.214399,-1.97494 -2.214399,-3.65806 0,-1.11644 0.289714,-1.7351 2.673587,-5.70927 2.981928,-4.97118 4.414661,-6.604588 6.818081,-7.773038 4.21058,-2.04704 9.068205,-1.30313 12.464365,1.90881 3.24384,3.067888 3.36576,3.603618 4.20409,18.472708 0.37331,6.6212 0.74072,12.53349 0.81646,13.13844 l 0.13773,1.09989 4.968329,0.0907 c 4.7671,0.0871 5.0067,0.11703 5.91549,0.74009 1.94966,1.3367 2.48379,3.72369 1.27196,5.68447 -1.14734,1.85643 -1.79582,1.9881 -9.824109,1.99473 -6.85842,0.006 -7.06533,-0.01 -8.19865,-0.60902 -1.94187,-1.02688 -2.1321,-1.60626 -2.52308,-7.68434 -0.18846,-2.92978 -0.34796,-5.61185 -0.35445,-5.96017 -0.0116,-0.62123 -0.0459,-0.63012 -1.79772,-0.46596 -5.850874,0.54826 -11.840723,3.80385 -15.55845,8.45628 -2.639136,3.30267 -3.569641,5.63797 -5.876629,14.74869 -1.125685,4.44553 -2.264341,8.41433 -2.530346,8.81956 -0.533148,0.81219 -2.320188,1.73915 -3.352812,1.73915 -0.363802,0 -1.165014,-0.22859 -1.780471,-0.50797 z m 69.646087,-18.90374 c -4.30457,-1.06834 -7.54337,-4.55309 -8.35427,-8.98864 -0.27791,-1.52016 -0.14068,-3.66566 0.31081,-4.85938 l 0.22515,-0.59531 h -8.13946 c -7.91655,0 -8.17164,-0.0163 -9.31396,-0.59531 -2.866119,-1.45276 -3.011469,-5.44787 -0.26055,-7.16203 0.90474,-0.56377 1.16648,-0.57887 11.38112,-0.65691 l 10.45509,-0.0799 2.31377,-4.59657 c 2.62268,-5.21025 3.14125,-5.75577 5.47147,-5.75577 2.37993,0 4.08937,1.68268 4.07485,4.01107 -0.006,1.02516 -0.63878,2.46846 -4.15192,9.47593 -4.58398,9.14341 -4.72056,9.5865 -3.37098,10.93607 l 0.77339,0.7734 11.86046,0.006 c 6.52325,0.003 12.32149,0.11328 12.88497,0.24401 1.99589,0.46307 3.61678,2.85732 3.18236,4.7007 -0.31647,1.34286 -1.21637,2.50637 -2.32953,3.01191 -1.00849,0.458 -1.93638,0.49096 -13.38672,0.47542 -8.85729,-0.012 -12.67364,-0.10865 -13.62604,-0.34502 z"
           id="path1" /></g></g></g></svg>
