<?xml version="1.0" encoding="UTF-8" standalone="no"?>
<!-- Created with Inkscape (http://www.inkscape.org/) -->

<svg
   width="165.98802mm"
   height="165.98802mm"
   viewBox="0 0 165.98802 165.98802"
   version="1.1"
   id="svg1"
   xml:space="preserve"
   sodipodi:docname="bitmap.svg"
   inkscape:version="1.3 (0e150ed6c4, 2023-07-21)"
   xmlns:inkscape="http://www.inkscape.org/namespaces/inkscape"
   xmlns:sodipodi="http://sodipodi.sourceforge.net/DTD/sodipodi-0.dtd"
   xmlns="http://www.w3.org/2000/svg"
   xmlns:svg="http://www.w3.org/2000/svg"><sodipodi:namedview
     id="namedview1"
     pagecolor="#ffffff"
     bordercolor="#000000"
     borderopacity="0.25"
     inkscape:showpageshadow="2"
     inkscape:pageopacity="0.0"
     inkscape:pagecheckerboard="0"
     inkscape:deskcolor="#d1d1d1"
     inkscape:document-units="mm"
     inkscape:zoom="0.61049837"
     inkscape:cx="313.67815"
     inkscape:cy="313.67815"
     inkscape:window-width="1366"
     inkscape:window-height="697"
     inkscape:window-x="-8"
     inkscape:window-y="-8"
     inkscape:window-maximized="1"
     inkscape:current-layer="layer1" /><defs
     id="defs1" /><g
     inkscape:label="Capa 1"
     inkscape:groupmode="layer"
     id="layer1"
     transform="translate(-21.341317,-36.161677)"><path
       style="fill:#c8d6e5;fill-opacity:1"
       d="m 131.03496,180.17377 c -31.469956,-8.29746 -86.354697,-23.20563 -87.534408,-23.77669 -1.888938,-0.91437 -4.453458,-3.46122 -5.393395,-5.35622 -1.118068,-2.25413 -1.618309,-4.59023 -1.444196,-6.7443 0.109504,-1.35474 1.996199,-7.9978 7.025994,-24.73854 l 6.876289,-22.886459 0.09314,20.505209 c 0.09255,20.37508 0.09695,20.51864 0.693197,22.62187 2.116449,7.4657 7.493711,12.9848 14.867704,15.25987 l 1.977134,0.61 42.822571,0.0742 c 38.50196,0.0667 42.80674,0.11542 42.66561,0.48318 -0.0863,0.22497 -1.35783,4.24089 -2.82555,8.92425 -1.67306,5.33857 -2.97753,9.03321 -3.49671,9.90373 -2.23107,3.7409 -6.62472,6.17462 -11.08795,6.1418 -0.77164,-0.006 -3.12938,-0.46551 -5.23943,-1.02185 z M 69.694308,146.80152 c -4.794223,-1.25579 -8.245692,-4.63223 -9.998359,-9.781 -0.47377,-1.39179 -0.49536,-2.90816 -0.49536,-34.79271 V 68.890316 l 0.592484,-1.88385 c 1.092601,-3.474 3.827166,-6.727149 7.001906,-8.329753 3.276933,-1.654191 0.350073,-1.56036 48.672131,-1.56036 31.18572,0 44.52776,0.0857 45.51888,0.292387 3.67933,0.767276 7.5218,3.691608 9.302,7.079326 1.83324,3.48865 1.74913,1.69042 1.75347,37.492714 0.003,21.91361 -0.0876,32.80144 -0.2807,33.86667 -0.98362,5.4257 -5.78151,10.22359 -11.20721,11.20721 -1.08116,0.196 -15.16735,0.28007 -45.24375,0.27004 -42.210092,-0.0141 -43.73887,-0.0316 -45.615492,-0.52318 z m 19.139613,-39.86401 c 1.406166,-0.65631 1.889724,-0.74095 4.233333,-0.74095 3.86995,0 4.75028,0.49151 9.822106,5.48384 l 4.00128,3.93857 10.87412,-13.04558 c 11.28814,-13.542274 11.97929,-14.255734 14.66851,-15.141924 2.77872,-0.91569 6.67285,-0.20766 8.97303,1.63148 0.68377,0.54672 5.29744,5.736 10.2526,11.531744 l 9.00939,10.53771 V 90.610846 70.089286 l -0.77203,-0.86407 -0.77203,-0.86407 -42.81807,-0.078 c -30.546978,-0.0556 -43.106045,0.005 -43.822912,0.21285 -0.666791,0.19297 -1.178274,0.57524 -1.520365,1.13628 -0.502062,0.82341 -0.51555,1.55009 -0.516514,27.827455 l -9.89e-4,26.981959 8.400521,-8.38164 c 7.201921,-7.18573 8.627027,-8.48736 9.98802,-9.12259 z M 84.468296,96.115101 c -4.223892,-1.130105 -7.482698,-4.761025 -8.18455,-9.119135 -1.083629,-6.72872 4.217752,-12.94628 11.038598,-12.94628 3.340209,0 5.91339,1.11706 8.24001,3.57712 4.16612,4.40506 4.05808,11.16895 -0.24767,15.506 -2.93849,2.95985 -6.879827,4.043555 -10.846388,2.982295 z"
       id="path1" /></g></svg>
