<?xml version="1.0" encoding="UTF-8" standalone="no"?>
<!-- Created with Inkscape (http://www.inkscape.org/) -->

<svg
   width="135.467mm"
   height="135.467mm"
   viewBox="0 0 135.467 135.467"
   version="1.1"
   id="svg1"
   xml:space="preserve"
   inkscape:version="1.3 (0e150ed6c4, 2023-07-21)"
   sodipodi:docname="person.svg"
   xmlns:inkscape="http://www.inkscape.org/namespaces/inkscape"
   xmlns:sodipodi="http://sodipodi.sourceforge.net/DTD/sodipodi-0.dtd"
   xmlns="http://www.w3.org/2000/svg"
   xmlns:svg="http://www.w3.org/2000/svg"><sodipodi:namedview
     id="namedview1"
     pagecolor="#ffffff"
     bordercolor="#000000"
     borderopacity="0.25"
     inkscape:showpageshadow="2"
     inkscape:pageopacity="0.0"
     inkscape:pagecheckerboard="0"
     inkscape:deskcolor="#d1d1d1"
     inkscape:document-units="mm"
     inkscape:zoom="0.44631734"
     inkscape:cx="99.704842"
     inkscape:cy="36.969211"
     inkscape:window-width="1366"
     inkscape:window-height="697"
     inkscape:window-x="-8"
     inkscape:window-y="-8"
     inkscape:window-maximized="1"
     inkscape:current-layer="layer1" /><defs
     id="defs1" /><g
     inkscape:label="Capa 1"
     inkscape:groupmode="layer"
     id="layer1"
     transform="translate(-78.099007,-137.97325)"><rect
       style="fill:#333333;stroke-width:0.267951"
       id="rect1"
       width="135.467"
       height="135.467"
       x="78.099007"
       y="137.97325" /><path
       style="fill:#ffffff;fill-opacity:1;stroke-width:0.514275"
       d="m 120.79417,229.52603 c 0.28509,-5.13119 2.00057,-9.84478 5.06844,-13.92647 0.8725,-1.16083 2.75977,-3.12649 4.00228,-4.16851 2.03235,-1.70441 4.66709,-3.21266 7.47585,-4.27953 l 0.2758,-0.10475 -0.7656,-0.60798 c -2.7351,-2.17203 -4.5926,-5.24821 -5.28397,-8.75073 -0.21141,-1.07099 -0.2385,-3.74652 -0.0491,-4.84546 1.07964,-6.26298 5.80425,-10.98734 12.06136,-12.06075 0.94654,-0.16238 3.55962,-0.16238 4.50616,0 6.25711,1.07341 10.98172,5.79777 12.06137,12.06075 0.18943,1.09894 0.16235,3.77447 -0.0491,4.84546 -0.69137,3.50252 -2.54887,6.5787 -5.28397,8.75073 l -0.7656,0.60798 0.2758,0.10475 c 1.10577,0.42001 1.7143,0.69013 2.88257,1.27952 6.38163,3.21953 11.15645,9.19377 12.93055,16.17867 0.3644,1.4347 0.64422,3.3103 0.73345,4.91632 l 0.0682,1.22706 h -1.95859 -1.95858 l -0.064,-1.10205 c -0.30985,-5.3355 -2.42558,-10.05735 -6.19569,-13.82746 -3.2694,-3.2694 -7.16143,-5.24912 -11.80448,-6.00449 -1.4133,-0.22992 -4.83676,-0.22992 -6.25006,0 -4.64305,0.75537 -8.53508,2.73509 -11.80448,6.00449 -3.77011,3.77011 -5.88584,8.49196 -6.19569,13.82746 l -0.064,1.10205 h -1.95858 -1.95859 z m 27.61232,-24.17977 c 3.7543,-0.97501 6.66689,-3.88277 7.68332,-7.67059 0.2301,-0.85747 0.25859,-1.14176 0.25859,-2.57999 0,-1.43595 -0.0287,-1.72323 -0.2571,-2.57413 -1.01716,-3.78925 -3.8939,-6.66764 -7.67895,-7.68332 -0.85747,-0.2301 -1.14176,-0.25859 -2.57999,-0.25859 -1.43823,0 -1.72252,0.0285 -2.57999,0.25859 -3.78504,1.01568 -6.66179,3.89407 -7.67894,7.68332 -0.22842,0.8509 -0.25711,1.13818 -0.25711,2.57413 0,1.43595 0.0287,1.72323 0.25711,2.57413 1.09505,4.07946 4.31858,7.07203 8.46188,7.85561 1.16209,0.21977 3.14858,0.13835 4.37118,-0.17916 z"
       id="path1" /></g></svg>
